PathFileType	4	(X/Y/Z)	Walk4.trc
DataRate	CameraRate	NumFrames	NumMarkers	Units	OrigDataRate	OrigDataStartFrame	OrigNumFrames
200.000000	200.000000	8	61	mm	200.000000	551	877
Frame#	Times		RCAR		LTH3		RTH2		LBHD		LWRU		LUA1		LFA1		LCAR		RFA1		LElbow		RTB3		RTB1		RToe		RTB2		RMT5		RBHD		LWRR		LTH2		LElbowM		RPSI		C7		RLFC		RMT1		LTH4		STRN		LASI		RLMAL		RBack		T10		LTH1		LPSI		CLAV		LLFC		RUA1		LACR1		RCAL		LTB3		RElbowM		RTH3		LCAL		RTH1		RFHD		RElbow		LTB1		LMMAL		LTB2		LFHD		RTH4		RASI		LMFC		LTB4		RMMAL		LMT5		RMFC		RACR1		RWRR		RWRU		LLMAL		RTB4		LToe		LMT1
			X1	Y1	Z1	X2	Y2	Z2	X3	Y3	Z3	X4	Y4	Z4	X5	Y5	Z5	X6	Y6	Z6	X7	Y7	Z7	X8	Y8	Z8	X9	Y9	Z9	X10	Y10	Z10	X11	Y11	Z11	X12	Y12	Z12	X13	Y13	Z13	X14	Y14	Z14	X15	Y15	Z15	X16	Y16	Z16	X17	Y17	Z17	X18	Y18	Z18	X19	Y19	Z19	X20	Y20	Z20	X21	Y21	Z21	X22	Y22	Z22	X23	Y23	Z23	X24	Y24	Z24	X25	Y25	Z25	X26	Y26	Z26	X27	Y27	Z27	X28	Y28	Z28	X29	Y29	Z29	X30	Y30	Z30	X31	Y31	Z31	X32	Y32	Z32	X33	Y33	Z33	X34	Y34	Z34	X35	Y35	Z35	X36	Y36	Z36	X37	Y37	Z37	X38	Y38	Z38	X39	Y39	Z39	X40	Y40	Z40	X41	Y41	Z41	X42	Y42	Z42	X43	Y43	Z43	X44	Y44	Z44	X45	Y45	Z45	X46	Y46	Z46	X47	Y47	Z47	X48	Y48	Z48	X49	Y49	Z49	X50	Y50	Z50	X51	Y51	Z51	X52	Y52	Z52	X53	Y53	Z53	X54	Y54	Z54	X55	Y55	Z55	X56	Y56	Z56	X57	Y57	Z57	X58	Y58	Z58	X59	Y59	Z59	X60	Y60	Z60	X61	Y61	Z61

551	2.755	-421.79	905.45	243.9	-627.28	603.14	-175.86	-697.01	675.03	151.28	-720.94	1622.8	-86.019	-828.28	841.89	-248.87	-774.71	1276.2	-260.87	-837.94	975.65	-266.64	-767.8	787.9	-258.67	-573.31	1000.2	291.67	-830.89	1127.3	-267.58	-902.23	181.48	71.722	-826.73	351.4	88.627	-795.3	24.53	103.85	-891	267.38	142.65	-904.25	21.689	151.64	-711.92	1631.4	55.274	-755.34	843.84	-210.19	-589.68	712.84	-158.08	-856.54	1129.2	-194.13	-866.91	1011.4	49.631	-750.41	1497.1	-6.9502	-838.08	489.15	159.42	-848.67	32.659	76.884	-651.85	691.67	-189.3	-584.22	1229.5	-15.568	-661.57	1016.1	-137.55	-986.75	77.169	109.35	-818.1	1413.7	135.36	-864.26	1277.9	3.1131	-674.33	782.41	-195.64	-871.22	1004.1	-27.404	-622.8	1404.3	-13.908	-602.58	509.75	-162.11	-660.7	1284.8	251.66	-693.22	1445.5	-179.36	-1046	47.622	58.866	-465.52	215.83	-101.81	-705.34	1104.1	235.97	-792.66	603.08	168.38	-507.78	19.478	-101.07	-737.02	784.49	187.93	-536.36	1662.2	20.43	-661.77	1130	301.6	-510.35	396.61	-94.598	-445.97	106.26	-66.199	-516.7	305.76	-166.87	-540.01	1658.9	-55.614	-762.41	692.05	181.38	-664.05	1028.7	147.69	-596.4	511.93	-28.528	-488.54	309.4	-96.809	-946.91	91.729	30.885	-352.89	54.778	-171.55	-825.09	502.72	27.838	-663.69	1449.1	145.8	-458.23	937.19	197.95	-488.69	897.6	257.65	-467.67	77.71	-146.1	-863.67	265.69	78.546	-274.52	99.357	-111.02	-318.03	82.013	-93.157
552	2.76	-416.16	905.01	243.65	-621.2	602.66	-175.61	-692.21	674.24	151.24	-715.43	1622	-86.827	-823.63	840.97	-249.24	-769.03	1275.2	-261.5	-832.8	974.72	-267.08	-763.35	786.69	-258.57	-567.92	999.51	291.1	-825.31	1126.3	-268.12	-900.93	181.62	71.784	-823.82	350.91	88.484	-795.29	24.501	103.85	-888.87	267.51	142.59	-904.17	21.719	151.63	-706.49	1630.6	54.469	-750.87	842.7	-210.18	-583.69	712.5	-158.63	-851.17	1128.4	-194.75	-861.2	1010.6	48.818	-744.91	1496.3	-7.7373	-834.13	488.88	159.2	-848.58	32.682	76.931	-645.92	691.07	-189.55	-578.6	1228.7	-16.008	-655.67	1015.3	-137.9	-986.33	78.139	109.54	-812.75	1412.9	134.56	-858.69	1277.1	2.3893	-668.52	781.76	-196.25	-865.5	1003.2	-28.166	-617.25	1403.5	-14.545	-596.51	508.99	-161.86	-655.4	1284	251	-687.63	1444.6	-180.08	-1045.8	49.085	59.086	-460.69	214.67	-100.98	-699.97	1103.2	235.18	-788.2	602.64	168.09	-504.62	19.393	-100.19	-731.99	783.87	187.49	-530.92	1661.5	19.736	-656.56	1129.2	300.94	-504.59	395.63	-94.088	-441.82	105.03	-65.198	-511.51	304.7	-166.08	-534.53	1658.2	-56.319	-757.68	691.5	180.98	-659.99	1028.3	147.89	-589.96	511.59	-28.339	-483.22	308.32	-96.142	-946.42	92.357	31.061	-349.37	52.581	-170.4	-820.63	502.21	27.684	-658.24	1448.3	145.15	-452.53	936.71	197.6	-483.07	897.02	257.21	-463.7	76.684	-145.12	-861.56	265.53	78.499	-270.33	96.233	-109.84	-314.19	79.547	-92.052
553	2.765	-410.67	904.49	243.43	-614.91	602.31	-175.35	-687.29	673.46	151.18	-709.91	1621.3	-87.674	-818.84	840.05	-249.68	-763.3	1274.2	-262.15	-827.55	973.8	-267.57	-758.76	785.5	-258.53	-562.64	998.76	290.53	-819.66	1125.3	-268.7	-899.56	181.82	71.854	-820.79	350.43	88.344	-795.29	24.471	103.84	-886.63	267.67	142.54	-904.07	21.762	151.62	-701.05	1629.9	53.627	-746.29	841.59	-210.22	-577.53	712.31	-159.2	-845.73	1127.5	-195.42	-855.46	1009.7	47.997	-739.4	1495.5	-8.5562	-830.03	488.61	158.99	-848.49	32.704	76.985	-639.83	690.59	-189.76	-572.97	1228	-16.49	-649.76	1014.5	-138.29	-985.86	79.189	109.75	-807.39	1412.2	133.74	-853.1	1276.3	1.6543	-662.6	781.22	-196.85	-859.77	1002.4	-28.935	-611.69	1402.8	-15.214	-590.29	508.31	-161.64	-650.13	1283.2	250.32	-682.03	1443.6	-180.82	-1045.6	50.669	59.338	-456.11	213.44	-100.15	-694.64	1102.4	234.34	-783.59	602.2	167.79	-502.04	19.406	-99.392	-726.88	783.26	187.03	-525.48	1660.7	19.013	-651.43	1128.4	300.23	-498.83	394.62	-93.566	-438.08	103.71	-64.222	-506.39	303.63	-165.31	-529.04	1657.4	-57.054	-752.84	690.97	180.57	-655.89	1027.9	148.07	-583.31	511.29	-28.21	-478.02	307.2	-95.473	-945.89	93.056	31.259	-346.4	50.138	-169.29	-816.02	501.69	27.535	-652.78	1447.6	144.49	-446.94	936.17	197.28	-477.6	896.37	256.79	-460.17	75.629	-144.18	-859.36	265.39	78.46	-266.56	92.607	-108.61	-310.82	76.704	-90.945
554	2.77	-405.32	903.89	243.27	-608.45	602.09	-175.09	-682.26	672.72	151.11	-704.37	1620.5	-88.559	-813.92	839.16	-250.18	-757.54	1273.2	-262.83	-822.18	972.89	-268.1	-754.02	784.34	-258.53	-557.48	998.01	289.94	-813.93	1124.4	-269.31	-898.12	182.06	71.929	-817.64	349.95	88.206	-795.28	24.439	103.83	-884.28	267.86	142.51	-903.96	21.821	151.6	-695.59	1629.2	52.748	-741.58	840.49	-210.3	-571.23	712.26	-159.77	-840.21	1126.7	-196.12	-849.7	1008.9	47.177	-733.88	1494.8	-9.4057	-825.75	488.34	158.79	-848.39	32.724	77.047	-633.6	690.23	-189.95	-567.31	1227.3	-17.016	-643.84	1013.8	-138.71	-985.35	80.327	109.99	-802.01	1411.6	132.88	-847.5	1275.6	0.9103	-656.57	780.78	-197.44	-854.01	1001.7	-29.703	-606.1	1402	-15.917	-583.92	507.73	-161.46	-644.89	1282.5	249.61	-676.42	1442.7	-181.6	-1045.4	52.381	59.622	-451.75	212.18	-99.348	-689.36	1101.6	233.44	-778.85	601.75	167.48	-499.97	19.525	-98.685	-721.69	782.66	186.53	-520.02	1660.1	18.26	-646.35	1127.6	299.49	-493.09	393.62	-93.034	-434.71	102.32	-63.287	-501.33	302.61	-164.56	-523.53	1656.8	-57.817	-747.89	690.45	180.16	-651.75	1027.5	148.22	-576.49	511.04	-28.148	-472.94	306.06	-94.81	-945.32	93.831	31.476	-343.89	47.508	-168.27	-811.25	501.16	27.39	-647.3	1446.9	143.8	-441.47	935.56	196.99	-472.27	895.68	256.4	-457.02	74.577	-143.31	-857.06	265.27	78.428	-263.15	88.549	-107.36	-307.86	73.551	-89.845
555	2.775	-400.11	903.21	243.14	-601.82	601.98	-174.83	-677.11	672	151.01	-698.82	1619.9	-89.482	-808.85	838.27	-250.74	-751.73	1272.2	-263.53	-816.7	971.99	-268.68	-749.14	783.2	-258.58	-552.42	997.25	289.34	-808.14	1123.4	-269.95	-896.61	182.37	72.001	-814.36	349.46	88.072	-795.28	24.404	103.8	-881.81	268.09	142.49	-903.83	21.899	151.59	-690.13	1628.6	51.834	-736.75	839.43	-210.43	-564.8	712.33	-160.34	-834.62	1125.8	-196.85	-843.91	1008.2	46.365	-728.33	1494.1	-10.284	-821.29	488.06	158.59	-848.27	32.74	77.114	-627.24	689.98	-190.1	-561.63	1226.7	-17.586	-637.91	1013.1	-139.16	-984.78	81.559	110.26	-796.63	1411	131.99	-841.88	1275	0.15982	-650.44	780.43	-197.99	-848.25	1001	-30.465	-600.5	1401.4	-16.652	-577.41	507.27	-161.32	-639.67	1281.8	248.88	-670.81	1441.9	-182.4	-1045.1	54.233	59.935	-447.58	210.9	-98.57	-684.13	1100.9	232.48	-773.94	601.29	167.17	-498.32	19.75	-98.08	-716.41	782.09	186.01	-514.55	1659.5	17.476	-641.34	1126.9	298.7	-487.36	392.64	-92.498	-431.67	100.91	-62.409	-496.27	301.64	-163.86	-518.01	1656.1	-58.61	-742.81	689.93	179.72	-647.55	1027.2	148.34	-569.53	510.84	-28.161	-467.95	304.93	-94.159	-944.69	94.689	31.71	-341.78	44.757	-167.34	-806.33	500.63	27.246	-641.8	1446.3	143.08	-436.1	934.9	196.74	-467.08	894.95	256.04	-454.17	73.557	-142.52	-854.66	265.18	78.402	-260.04	84.147	-106.08	-305.25	70.168	-88.764
556	2.78	-395.05	902.46	243.07	-595.08	601.98	-174.59	-671.82	671.32	150.89	-693.26	1619.3	-90.442	-803.65	837.42	-251.36	-745.88	1271.2	-264.24	-811.12	971.11	-269.29	-744.11	782.11	-258.69	-547.49	996.49	288.74	-802.26	1122.5	-270.62	-895.01	182.75	72.067	-810.93	348.98	87.942	-795.27	24.366	103.77	-879.22	268.35	142.47	-903.67	22.001	151.57	-684.65	1628	50.884	-731.79	838.4	-210.61	-558.24	712.5	-160.91	-828.95	1125	-197.61	-838.1	1007.5	45.567	-722.76	1493.5	-11.189	-816.65	487.77	158.4	-848.15	32.753	77.187	-620.77	689.83	-190.21	-555.93	1226.1	-18.2	-631.99	1012.5	-139.64	-984.14	82.893	110.56	-791.22	1410.5	131.07	-836.24	1274.4	-0.59448	-644.23	780.18	-198.51	-842.47	1000.3	-31.216	-594.88	1400.8	-17.418	-570.76	506.93	-161.24	-634.47	1281.1	248.12	-665.19	1441.1	-183.23	-1044.8	56.236	60.276	-443.57	209.65	-97.83	-678.94	1100.2	231.47	-768.88	600.83	166.85	-497.01	20.074	-97.582	-711.04	781.54	185.46	-509.06	1658.9	16.662	-636.4	1126.2	297.87	-481.64	391.7	-91.964	-428.9	99.513	-61.597	-491.2	300.76	-163.22	-512.48	1655.6	-59.431	-737.6	689.43	179.27	-643.29	1026.9	148.43	-562.47	510.71	-28.253	-463.05	303.83	-93.53	-944	95.637	31.962	-340	41.958	-166.53	-801.24	500.09	27.105	-636.27	1445.7	142.35	-430.86	934.17	196.51	-462.05	894.17	255.7	-451.59	72.594	-141.81	-852.15	265.12	78.38	-257.21	79.508	-104.8	-302.94	66.65	-87.719
557	2.785	-390.13	901.63	243.04	-588.22	602.07	-174.35	-666.41	670.68	150.72	-687.68	1618.7	-91.438	-798.3	836.59	-252.04	-739.99	1270.3	-264.98	-805.42	970.26	-269.95	-738.93	781.05	-258.86	-542.67	995.73	288.12	-796.32	1121.6	-271.32	-893.31	183.22	72.124	-807.35	348.5	87.817	-795.28	24.324	103.74	-876.49	268.65	142.47	-903.5	22.131	151.56	-679.16	1627.5	49.899	-726.7	837.41	-210.83	-551.59	712.75	-161.48	-823.21	1124.2	-198.4	-832.27	1006.8	44.79	-717.16	1492.9	-12.119	-811.8	487.47	158.21	-848.01	32.761	77.265	-614.21	689.78	-190.29	-550.22	1225.6	-18.859	-626.07	1012	-140.16	-983.44	84.337	110.88	-785.8	1410	130.12	-830.58	1273.8	-1.3497	-637.93	780.02	-198.97	-836.68	999.75	-31.949	-589.24	1400.2	-18.214	-563.98	506.72	-161.21	-629.29	1280.4	247.33	-659.56	1440.3	-184.07	-1044.4	58.401	60.641	-439.73	208.43	-97.134	-673.8	1099.5	230.4	-763.63	600.37	166.51	-495.96	20.485	-97.187	-705.57	781	184.88	-503.56	1658.4	15.817	-631.51	1125.5	296.99	-475.94	390.81	-91.442	-426.39	98.152	-60.859	-486.1	299.97	-162.66	-506.93	1655.1	-60.279	-732.25	688.94	178.81	-638.96	1026.5	148.48	-555.35	510.66	-28.429	-458.22	302.78	-92.929	-943.23	96.679	32.228	-338.5	39.182	-165.88	-795.99	499.56	26.967	-630.71	1445.2	141.59	-425.73	933.38	196.32	-457.17	893.35	255.38	-449.24	71.705	-141.21	-849.52	265.1	78.364	-254.62	74.748	-103.55	-300.88	63.099	-86.727
558	2.79	-385.36	900.75	243.06	-581.29	602.26	-174.14	-660.85	670.08	150.52	-682.08	1618.3	-92.469	-792.81	835.79	-252.77	-734.06	1269.5	-265.73	-799.62	969.44	-270.65	-733.61	780.05	-259.08	-537.97	994.98	287.5	-790.31	1120.8	-272.04	-891.51	183.77	72.17	-803.61	348.03	87.7	-795.28	24.276	103.7	-873.6	268.99	142.48	-903.31	22.295	151.54	-673.66	1627	48.883	-721.47	836.47	-211.1	-544.85	713.08	-162.04	-817.39	1123.4	-199.21	-826.42	1006.2	44.042	-711.54	1492.4	-13.07	-806.74	487.16	158.03	-847.85	32.762	77.345	-607.58	689.83	-190.32	-544.48	1225.1	-19.561	-620.15	1011.6	-140.72	-982.64	85.899	111.22	-780.35	1409.6	129.16	-824.91	1273.4	-2.103	-631.56	779.95	-199.39	-830.88	999.26	-32.66	-583.58	1399.7	-19.039	-557.07	506.66	-161.24	-624.13	1279.8	246.52	-653.93	1439.6	-184.94	-1043.9	60.741	61.023	-436.02	207.28	-96.489	-668.7	1098.9	229.27	-758.2	599.89	166.17	-495.12	20.964	-96.891	-700	780.49	184.27	-498.05	1658	14.943	-626.69	1124.9	296.05	-470.24	390	-90.942	-424.1	96.855	-60.196	-480.97	299.29	-162.17	-501.37	1654.6	-61.156	-726.76	688.46	178.32	-634.56	1026.3	148.49	-548.19	510.71	-28.687	-453.47	301.79	-92.364	-942.36	97.825	32.509	-337.24	36.501	-165.4	-790.54	499.01	26.833	-625.13	1444.7	140.82	-420.72	932.54	196.17	-452.45	892.5	255.09	-447.07	70.901	-140.69	-846.75	265.12	78.355	-252.24	69.982	-102.34	-299.04	59.611	-85.807
